<?xml version="1.0" encoding="UTF-8" standalone="no"?>
<!DOCTYPE svg PUBLIC "-//W3C//DTD SVG 1.1//EN"
 "http://www.w3.org/Graphics/SVG/1.1/DTD/svg11.dtd">
<!-- Generated by graphviz version 2.40.1 (20161225.0304)
 -->
<!-- Title: dependencies Pages: 1 -->
<svg width="504pt" height="284pt"
 viewBox="0.00 0.00 504.00 284.00" xmlns="http://www.w3.org/2000/svg" xmlns:xlink="http://www.w3.org/1999/xlink">
<g id="graph0" class="graph" transform="scale(1 1) rotate(0) translate(4 280)">
<title>dependencies</title>
<polygon fill="#ffffff" stroke="transparent" points="-4,4 -4,-280 500,-280 500,4 -4,4"/>
<text text-anchor="start" x="227.0091" y="-42.4" font-family="sans-serif" font-weight="bold" font-size="14.00" fill="#000000">Legend</text>
<polygon fill="#ffffb3" stroke="transparent" points="14,-10 14,-30 34,-30 34,-10 14,-10"/>
<text text-anchor="start" x="37.629" y="-15.4" font-family="sans-serif" font-size="14.00" fill="#000000"> &#160;Declarations</text>
<polygon fill="#8dd3c7" stroke="transparent" points="127,-10 127,-30 147,-30 147,-10 127,-10"/>
<text text-anchor="start" x="150.7251" y="-15.4" font-family="sans-serif" font-size="14.00" fill="#000000"> &#160;Module</text>
<polygon fill="#80b1d3" stroke="transparent" points="213,-10 213,-30 233,-30 233,-10 213,-10"/>
<text text-anchor="start" x="236.7812" y="-15.4" font-family="sans-serif" font-size="14.00" fill="#000000"> &#160;Bootstrap</text>
<polygon fill="#fdb462" stroke="transparent" points="310,-10 310,-30 330,-30 330,-10 310,-10"/>
<text text-anchor="start" x="333.6732" y="-15.4" font-family="sans-serif" font-size="14.00" fill="#000000"> &#160;Providers</text>
<polygon fill="#fb8072" stroke="transparent" points="406,-10 406,-30 426,-30 426,-10 406,-10"/>
<text text-anchor="start" x="429.7258" y="-15.4" font-family="sans-serif" font-size="14.00" fill="#000000"> &#160;Exports</text>
<g id="clust1" class="cluster">
<title>cluster_CommonComponentsModule</title>
<polygon fill="none" stroke="#000000" stroke-dasharray="1,5" points="98,-70 98,-268 398,-268 398,-70 98,-70"/>
</g>
<g id="clust2" class="cluster">
<title>cluster_CommonComponentsModule_declarations</title>
<polygon fill="none" stroke="#000000" points="106,-78 106,-130 390,-130 390,-78 106,-78"/>
</g>
<g id="clust6" class="cluster">
<title>cluster_CommonComponentsModule_exports</title>
<polygon fill="none" stroke="#000000" points="179,-208 179,-260 317,-260 317,-208 179,-208"/>
</g>
<!-- CategoryComponent -->
<g id="node1" class="node">
<title>CategoryComponent</title>
<polygon fill="#ffffb3" stroke="#000000" points="382.1499,-122 249.8501,-122 249.8501,-86 382.1499,-86 382.1499,-122"/>
<text text-anchor="middle" x="316" y="-99.8" font-family="Times,serif" font-size="14.00" fill="#000000">CategoryComponent</text>
</g>
<!-- CommonComponentsModule -->
<g id="node3" class="node">
<title>CommonComponentsModule</title>
<polygon fill="#8dd3c7" stroke="#000000" points="339.4451,-187 336.4451,-191 315.4451,-191 312.4451,-187 156.5549,-187 156.5549,-151 339.4451,-151 339.4451,-187"/>
<text text-anchor="middle" x="248" y="-164.8" font-family="Times,serif" font-size="14.00" fill="#000000">CommonComponentsModule</text>
</g>
<!-- CategoryComponent&#45;&gt;CommonComponentsModule -->
<g id="edge1" class="edge">
<title>CategoryComponent&#45;&gt;CommonComponentsModule</title>
<path fill="none" stroke="#000000" d="M294.4488,-122.1061C294.4488,-122.1061 294.4488,-140.991 294.4488,-140.991"/>
<polygon fill="#000000" stroke="#000000" points="290.9489,-140.9909 294.4488,-150.991 297.9489,-140.991 290.9489,-140.9909"/>
</g>
<!-- MarcoComponent -->
<g id="node2" class="node">
<title>MarcoComponent</title>
<polygon fill="#ffffb3" stroke="#000000" points="231.8669,-122 114.1331,-122 114.1331,-86 231.8669,-86 231.8669,-122"/>
<text text-anchor="middle" x="173" y="-99.8" font-family="Times,serif" font-size="14.00" fill="#000000">MarcoComponent</text>
</g>
<!-- MarcoComponent&#45;&gt;CommonComponentsModule -->
<g id="edge2" class="edge">
<title>MarcoComponent&#45;&gt;CommonComponentsModule</title>
<path fill="none" stroke="#000000" d="M194.3556,-122.1061C194.3556,-122.1061 194.3556,-140.991 194.3556,-140.991"/>
<polygon fill="#000000" stroke="#000000" points="190.8556,-140.9909 194.3556,-150.991 197.8556,-140.991 190.8556,-140.9909"/>
</g>
<!-- MarcoComponent  -->
<g id="node4" class="node">
<title>MarcoComponent </title>
<polygon fill="#fb8072" stroke="#000000" points="308.8674,-252 187.1326,-252 187.1326,-216 308.8674,-216 308.8674,-252"/>
<text text-anchor="middle" x="248" y="-229.8" font-family="Times,serif" font-size="14.00" fill="#000000">MarcoComponent </text>
</g>
<!-- CommonComponentsModule&#45;&gt;MarcoComponent  -->
<g id="edge3" class="edge">
<title>CommonComponentsModule&#45;&gt;MarcoComponent </title>
<path fill="none" stroke="#000000" stroke-dasharray="5,2" d="M248,-187.1061C248,-187.1061 248,-205.991 248,-205.991"/>
<polygon fill="#000000" stroke="#000000" points="244.5001,-205.9909 248,-215.991 251.5001,-205.991 244.5001,-205.9909"/>
</g>
</g>
</svg>
