<?xml version="1.0" encoding="UTF-8" standalone="no"?>
<!DOCTYPE svg PUBLIC "-//W3C//DTD SVG 1.1//EN"
 "http://www.w3.org/Graphics/SVG/1.1/DTD/svg11.dtd">
<!-- Generated by graphviz version 2.40.1 (20161225.0304)
 -->
<!-- Title: dependencies Pages: 1 -->
<svg width="947pt" height="284pt"
 viewBox="0.00 0.00 947.00 284.00" xmlns="http://www.w3.org/2000/svg" xmlns:xlink="http://www.w3.org/1999/xlink">
<g id="graph0" class="graph" transform="scale(1 1) rotate(0) translate(4 280)">
<title>dependencies</title>
<polygon fill="#ffffff" stroke="transparent" points="-4,4 -4,-280 943,-280 943,4 -4,4"/>
<text text-anchor="start" x="448.5091" y="-42.4" font-family="sans-serif" font-weight="bold" font-size="14.00" fill="#000000">Legend</text>
<polygon fill="#ffffb3" stroke="transparent" points="235.5,-10 235.5,-30 255.5,-30 255.5,-10 235.5,-10"/>
<text text-anchor="start" x="259.129" y="-15.4" font-family="sans-serif" font-size="14.00" fill="#000000"> &#160;Declarations</text>
<polygon fill="#8dd3c7" stroke="transparent" points="348.5,-10 348.5,-30 368.5,-30 368.5,-10 348.5,-10"/>
<text text-anchor="start" x="372.2251" y="-15.4" font-family="sans-serif" font-size="14.00" fill="#000000"> &#160;Module</text>
<polygon fill="#80b1d3" stroke="transparent" points="434.5,-10 434.5,-30 454.5,-30 454.5,-10 434.5,-10"/>
<text text-anchor="start" x="458.2812" y="-15.4" font-family="sans-serif" font-size="14.00" fill="#000000"> &#160;Bootstrap</text>
<polygon fill="#fdb462" stroke="transparent" points="531.5,-10 531.5,-30 551.5,-30 551.5,-10 531.5,-10"/>
<text text-anchor="start" x="555.1732" y="-15.4" font-family="sans-serif" font-size="14.00" fill="#000000"> &#160;Providers</text>
<polygon fill="#fb8072" stroke="transparent" points="627.5,-10 627.5,-30 647.5,-30 647.5,-10 627.5,-10"/>
<text text-anchor="start" x="651.2258" y="-15.4" font-family="sans-serif" font-size="14.00" fill="#000000"> &#160;Exports</text>
<g id="clust1" class="cluster">
<title>cluster_AppModule</title>
<polygon fill="none" stroke="#000000" stroke-dasharray="1,5" points="8,-70 8,-268 623,-268 623,-70 8,-70"/>
</g>
<g id="clust2" class="cluster">
<title>cluster_AppModule_declarations</title>
<polygon fill="none" stroke="#000000" points="334,-78 334,-130 615,-130 615,-78 334,-78"/>
</g>
<g id="clust5" class="cluster">
<title>cluster_AppModule_imports</title>
<polygon fill="none" stroke="#000000" points="182,-78 182,-130 326,-130 326,-78 182,-78"/>
</g>
<g id="clust7" class="cluster">
<title>cluster_AppModule_bootstrap</title>
<polygon fill="none" stroke="#000000" points="271,-208 271,-260 395,-260 395,-208 271,-208"/>
</g>
<g id="clust8" class="cluster">
<title>cluster_AppModule_providers</title>
<polygon fill="none" stroke="#000000" points="16,-78 16,-130 174,-130 174,-78 16,-78"/>
</g>
<g id="clust15" class="cluster">
<title>cluster_CommonComponentsModule</title>
<polygon fill="none" stroke="#000000" stroke-dasharray="1,5" points="631,-70 631,-268 931,-268 931,-70 631,-70"/>
</g>
<g id="clust16" class="cluster">
<title>cluster_CommonComponentsModule_declarations</title>
<polygon fill="none" stroke="#000000" points="639,-78 639,-130 923,-130 923,-78 639,-78"/>
</g>
<g id="clust20" class="cluster">
<title>cluster_CommonComponentsModule_exports</title>
<polygon fill="none" stroke="#000000" points="712,-208 712,-260 850,-260 850,-208 712,-208"/>
</g>
<!-- AppComponent -->
<g id="node1" class="node">
<title>AppComponent</title>
<polygon fill="#ffffb3" stroke="#000000" points="606.9399,-122 501.0601,-122 501.0601,-86 606.9399,-86 606.9399,-122"/>
<text text-anchor="middle" x="554" y="-99.8" font-family="Times,serif" font-size="14.00" fill="#000000">AppComponent</text>
</g>
<!-- AppModule -->
<g id="node3" class="node">
<title>AppModule</title>
<polygon fill="#8dd3c7" stroke="#000000" points="374.6571,-187 371.6571,-191 350.6571,-191 347.6571,-187 291.3429,-187 291.3429,-151 374.6571,-151 374.6571,-187"/>
<text text-anchor="middle" x="333" y="-164.8" font-family="Times,serif" font-size="14.00" fill="#000000">AppModule</text>
</g>
<!-- AppComponent&#45;&gt;AppModule -->
<g id="edge1" class="edge">
<title>AppComponent&#45;&gt;AppModule</title>
<path fill="none" stroke="#000000" d="M554,-122.1061C554,-141.3391 554,-169 554,-169 554,-169 384.8282,-169 384.8282,-169"/>
<polygon fill="#000000" stroke="#000000" points="384.8283,-165.5001 374.8282,-169 384.8282,-172.5001 384.8283,-165.5001"/>
</g>
<!-- CategoriesComponent -->
<g id="node2" class="node">
<title>CategoriesComponent</title>
<polygon fill="#ffffb3" stroke="#000000" points="483.6993,-122 342.3007,-122 342.3007,-86 483.6993,-86 483.6993,-122"/>
<text text-anchor="middle" x="413" y="-99.8" font-family="Times,serif" font-size="14.00" fill="#000000">CategoriesComponent</text>
</g>
<!-- CategoriesComponent&#45;&gt;AppModule -->
<g id="edge2" class="edge">
<title>CategoriesComponent&#45;&gt;AppModule</title>
<path fill="none" stroke="#000000" d="M358.6143,-122.1061C358.6143,-122.1061 358.6143,-140.991 358.6143,-140.991"/>
<polygon fill="#000000" stroke="#000000" points="355.1144,-140.9909 358.6143,-150.991 362.1144,-140.991 355.1144,-140.9909"/>
</g>
<!-- AppComponent  -->
<g id="node5" class="node">
<title>AppComponent </title>
<polygon fill="#80b1d3" stroke="#000000" points="387.439,-252 278.561,-252 278.561,-216 387.439,-216 387.439,-252"/>
<text text-anchor="middle" x="333" y="-229.8" font-family="Times,serif" font-size="14.00" fill="#000000">AppComponent </text>
</g>
<!-- AppModule&#45;&gt;AppComponent  -->
<g id="edge4" class="edge">
<title>AppModule&#45;&gt;AppComponent </title>
<path fill="none" stroke="#000000" stroke-dasharray="1,5" d="M333,-187.1061C333,-187.1061 333,-205.991 333,-205.991"/>
<polygon fill="#000000" stroke="#000000" points="329.5001,-205.9909 333,-215.991 336.5001,-205.991 329.5001,-205.9909"/>
</g>
<!-- AppRoutingModule -->
<g id="node4" class="node">
<title>AppRoutingModule</title>
<polygon fill="#8dd3c7" stroke="#000000" points="318.2744,-122 315.2744,-126 294.2744,-126 291.2744,-122 189.7256,-122 189.7256,-86 318.2744,-86 318.2744,-122"/>
<text text-anchor="middle" x="254" y="-99.8" font-family="Times,serif" font-size="14.00" fill="#000000">AppRoutingModule</text>
</g>
<!-- AppRoutingModule&#45;&gt;AppModule -->
<g id="edge3" class="edge">
<title>AppRoutingModule&#45;&gt;AppModule</title>
<path fill="none" stroke="#000000" d="M304.7795,-122.1061C304.7795,-122.1061 304.7795,-140.991 304.7795,-140.991"/>
<polygon fill="#000000" stroke="#000000" points="301.2795,-140.9909 304.7795,-150.991 308.2795,-140.991 301.2795,-140.9909"/>
</g>
<!-- RequestService -->
<g id="node6" class="node">
<title>RequestService</title>
<ellipse fill="#fdb462" stroke="#000000" cx="95" cy="-104" rx="71.2036" ry="18"/>
<text text-anchor="middle" x="95" y="-99.8" font-family="Times,serif" font-size="14.00" fill="#000000">RequestService</text>
</g>
<!-- RequestService&#45;&gt;AppModule -->
<g id="edge5" class="edge">
<title>RequestService&#45;&gt;AppModule</title>
<path fill="none" stroke="#000000" d="M95,-122.1061C95,-141.3391 95,-169 95,-169 95,-169 281.2712,-169 281.2712,-169"/>
<polygon fill="#000000" stroke="#000000" points="281.2713,-172.5001 291.2712,-169 281.2712,-165.5001 281.2713,-172.5001"/>
</g>
<!-- CategoryComponent -->
<g id="node7" class="node">
<title>CategoryComponent</title>
<polygon fill="#ffffb3" stroke="#000000" points="915.1499,-122 782.8501,-122 782.8501,-86 915.1499,-86 915.1499,-122"/>
<text text-anchor="middle" x="849" y="-99.8" font-family="Times,serif" font-size="14.00" fill="#000000">CategoryComponent</text>
</g>
<!-- CommonComponentsModule -->
<g id="node9" class="node">
<title>CommonComponentsModule</title>
<polygon fill="#8dd3c7" stroke="#000000" points="872.4451,-187 869.4451,-191 848.4451,-191 845.4451,-187 689.5549,-187 689.5549,-151 872.4451,-151 872.4451,-187"/>
<text text-anchor="middle" x="781" y="-164.8" font-family="Times,serif" font-size="14.00" fill="#000000">CommonComponentsModule</text>
</g>
<!-- CategoryComponent&#45;&gt;CommonComponentsModule -->
<g id="edge6" class="edge">
<title>CategoryComponent&#45;&gt;CommonComponentsModule</title>
<path fill="none" stroke="#000000" d="M827.4488,-122.1061C827.4488,-122.1061 827.4488,-140.991 827.4488,-140.991"/>
<polygon fill="#000000" stroke="#000000" points="823.9489,-140.9909 827.4488,-150.991 830.9489,-140.991 823.9489,-140.9909"/>
</g>
<!-- MarcoComponent -->
<g id="node8" class="node">
<title>MarcoComponent</title>
<polygon fill="#ffffb3" stroke="#000000" points="764.8669,-122 647.1331,-122 647.1331,-86 764.8669,-86 764.8669,-122"/>
<text text-anchor="middle" x="706" y="-99.8" font-family="Times,serif" font-size="14.00" fill="#000000">MarcoComponent</text>
</g>
<!-- MarcoComponent&#45;&gt;CommonComponentsModule -->
<g id="edge7" class="edge">
<title>MarcoComponent&#45;&gt;CommonComponentsModule</title>
<path fill="none" stroke="#000000" d="M727.3556,-122.1061C727.3556,-122.1061 727.3556,-140.991 727.3556,-140.991"/>
<polygon fill="#000000" stroke="#000000" points="723.8556,-140.9909 727.3556,-150.991 730.8556,-140.991 723.8556,-140.9909"/>
</g>
<!-- MarcoComponent  -->
<g id="node10" class="node">
<title>MarcoComponent </title>
<polygon fill="#fb8072" stroke="#000000" points="841.8674,-252 720.1326,-252 720.1326,-216 841.8674,-216 841.8674,-252"/>
<text text-anchor="middle" x="781" y="-229.8" font-family="Times,serif" font-size="14.00" fill="#000000">MarcoComponent </text>
</g>
<!-- CommonComponentsModule&#45;&gt;MarcoComponent  -->
<g id="edge8" class="edge">
<title>CommonComponentsModule&#45;&gt;MarcoComponent </title>
<path fill="none" stroke="#000000" stroke-dasharray="5,2" d="M781,-187.1061C781,-187.1061 781,-205.991 781,-205.991"/>
<polygon fill="#000000" stroke="#000000" points="777.5001,-205.9909 781,-215.991 784.5001,-205.991 777.5001,-205.9909"/>
</g>
</g>
</svg>
